<svg width="232" height="40" viewBox="0 0 232 40" fill="none" xmlns="http://www.w3.org/2000/svg">
<path d="M38.3072 14.916C39.3191 18.5596 39.2225 22.4308 38.0173 26.0312C36.7061 29.9484 34.1539 33.3316 30.7473 35.6682C27.3408 38.0049 23.2656 39.1677 19.1389 38.9804C15.0123 38.7932 11.059 37.2662 7.87808 34.6307C4.69713 31.9952 2.46175 28.3949 1.51056 24.375C0.55937 20.3551 0.944193 16.1347 2.60674 12.3531C4.26928 8.57158 7.11896 5.43486 10.7241 3.41814C14.0376 1.56457 17.8234 0.749933 21.5916 1.06677L19.0093 19.8639L18.79 21.4605L20.3179 20.9481L38.3072 14.916Z" stroke="black" stroke-width="2"/>
<path d="M27.9643 10.8972L29.4647 0L34.024 0.627774C34.5136 0.695186 34.9483 0.859301 35.3281 1.12012C35.7181 1.38234 36.0378 1.70265 36.2871 2.08104C36.5466 2.46083 36.7291 2.87172 36.8345 3.3137C36.9399 3.75569 36.9624 4.19667 36.9018 4.63665C36.8172 5.25058 36.5999 5.80973 36.2499 6.31412C35.8998 6.8185 35.4567 7.20581 34.9207 7.47606C34.3846 7.74631 33.7901 7.83649 33.1374 7.74661L30.1998 7.34214L29.6778 11.1331L27.9643 10.8972ZM30.409 5.82267L33.2395 6.21239C33.7189 6.2784 34.1383 6.13806 34.4979 5.79137C34.8574 5.44469 35.0773 4.97973 35.1576 4.3965C35.2126 3.99745 35.1789 3.63832 35.0565 3.31912C34.9356 2.98968 34.7545 2.71974 34.5133 2.50928C34.2822 2.30022 34.0137 2.17463 33.7077 2.13249L30.9691 1.75541L30.409 5.82267Z" fill="black"/>
<path d="M69.96 24.976C70.4187 24.976 70.808 24.9013 71.128 24.752C71.4587 24.592 71.7253 24.384 71.928 24.128C72.1413 23.8613 72.296 23.5627 72.392 23.232C72.4987 22.8907 72.552 22.5333 72.552 22.16V21.968H73.896V22.16C73.896 22.7253 73.8107 23.2587 73.64 23.76C73.4693 24.2507 73.2187 24.6827 72.888 25.056C72.5573 25.4187 72.1467 25.7067 71.656 25.92C71.1653 26.1227 70.6 26.224 69.96 26.224C68.7227 26.224 67.7573 25.8347 67.064 25.056C66.3707 24.2773 66.024 23.1413 66.024 21.648V19.152C66.024 17.7013 66.3707 16.576 67.064 15.776C67.7573 14.976 68.7227 14.576 69.96 14.576C70.6 14.576 71.1653 14.6827 71.656 14.896C72.1467 15.0987 72.5573 15.3867 72.888 15.76C73.2187 16.1227 73.4693 16.5547 73.64 17.056C73.8107 17.5467 73.896 18.0747 73.896 18.64V18.832H72.552V18.64C72.5413 18.2773 72.4827 17.9253 72.376 17.584C72.28 17.2427 72.1253 16.944 71.912 16.688C71.7093 16.4213 71.448 16.2133 71.128 16.064C70.808 15.904 70.4187 15.824 69.96 15.824C69.096 15.824 68.4453 16.1387 68.008 16.768C67.5813 17.3973 67.368 18.224 67.368 19.248V21.552C67.368 22.6507 67.5813 23.4987 68.008 24.096C68.4453 24.6827 69.096 24.976 69.96 24.976ZM77.4369 26H76.1889V14.8H77.4369V19.504H77.6289C77.8742 18.992 78.2155 18.5867 78.6529 18.288C79.1009 17.9893 79.6449 17.84 80.2849 17.84C81.1489 17.84 81.8475 18.128 82.3809 18.704C82.9249 19.2693 83.1969 20.1227 83.1969 21.264V26H81.9489V21.52C81.9489 20.688 81.7622 20.064 81.3889 19.648C81.0155 19.232 80.5089 19.024 79.8689 19.024C79.1115 19.024 78.5142 19.2853 78.0769 19.808C77.6502 20.32 77.4369 21.008 77.4369 21.872V26ZM88.4498 15.696C88.4498 15.3867 88.5564 15.1253 88.7698 14.912C88.9938 14.688 89.2604 14.576 89.5698 14.576C89.8791 14.576 90.1404 14.688 90.3538 14.912C90.5778 15.1253 90.6898 15.3867 90.6898 15.696C90.6898 16.0053 90.5778 16.272 90.3538 16.496C90.1404 16.7093 89.8791 16.816 89.5698 16.816C89.2604 16.816 88.9938 16.7093 88.7698 16.496C88.5564 16.272 88.4498 16.0053 88.4498 15.696ZM86.1778 24.848H88.9618V19.216H86.4658V18.064H90.2098V24.848H92.8018V26H86.1778V24.848ZM100.503 26H98.0386L95.2706 18.064H96.7426L99.1746 25.424H99.3666L101.799 18.064H103.271L100.503 26ZM106.492 22.416C106.524 23.2053 106.769 23.84 107.228 24.32C107.686 24.8 108.326 25.04 109.148 25.04C109.521 25.04 109.846 24.9973 110.124 24.912C110.401 24.8267 110.636 24.7093 110.828 24.56C111.03 24.4107 111.19 24.24 111.308 24.048C111.436 23.8453 111.537 23.632 111.612 23.408L112.796 23.728C112.572 24.464 112.156 25.0667 111.548 25.536C110.95 25.9947 110.14 26.224 109.116 26.224C108.55 26.224 108.028 26.128 107.548 25.936C107.078 25.7333 106.673 25.4507 106.332 25.088C105.99 24.7253 105.724 24.2933 105.532 23.792C105.34 23.2907 105.243 22.736 105.243 22.128V21.744C105.243 21.1893 105.34 20.672 105.532 20.192C105.734 19.712 106.012 19.3013 106.364 18.96C106.716 18.608 107.126 18.336 107.596 18.144C108.076 17.9413 108.593 17.84 109.148 17.84C109.798 17.84 110.358 17.9627 110.828 18.208C111.308 18.4427 111.697 18.736 111.996 19.088C112.305 19.44 112.529 19.824 112.668 20.24C112.817 20.656 112.892 21.04 112.892 21.392V22.416H106.492ZM109.148 19.024C108.796 19.024 108.465 19.0827 108.156 19.2C107.857 19.3067 107.59 19.4613 107.356 19.664C107.132 19.8667 106.945 20.1067 106.796 20.384C106.657 20.6507 106.566 20.944 106.524 21.264H111.644C111.622 20.9227 111.537 20.6133 111.388 20.336C111.249 20.0587 111.062 19.824 110.828 19.632C110.604 19.44 110.342 19.2907 110.044 19.184C109.756 19.0773 109.457 19.024 109.148 19.024ZM117.024 20.112C117.024 20.496 117.184 20.7893 117.504 20.992C117.835 21.1947 118.432 21.328 119.296 21.392C120.224 21.4667 120.928 21.6907 121.408 22.064C121.899 22.4267 122.144 22.96 122.144 23.664V23.76C122.144 24.144 122.064 24.4907 121.904 24.8C121.755 25.0987 121.542 25.3547 121.264 25.568C120.998 25.7813 120.667 25.9413 120.272 26.048C119.888 26.1653 119.467 26.224 119.008 26.224C118.39 26.224 117.856 26.144 117.408 25.984C116.971 25.8133 116.603 25.5947 116.304 25.328C116.016 25.0507 115.798 24.7413 115.648 24.4C115.499 24.048 115.414 23.696 115.392 23.344L116.576 23.056C116.63 23.664 116.864 24.1547 117.28 24.528C117.696 24.8907 118.251 25.072 118.944 25.072C119.531 25.072 120 24.96 120.352 24.736C120.715 24.5013 120.896 24.176 120.896 23.76C120.896 23.312 120.72 22.992 120.368 22.8C120.016 22.608 119.446 22.4853 118.656 22.432C117.739 22.368 117.035 22.1547 116.544 21.792C116.054 21.4293 115.808 20.9013 115.808 20.208V20.112C115.808 19.7387 115.888 19.4133 116.048 19.136C116.208 18.848 116.422 18.608 116.688 18.416C116.966 18.224 117.275 18.08 117.616 17.984C117.958 17.888 118.315 17.84 118.688 17.84C119.211 17.84 119.67 17.9147 120.064 18.064C120.459 18.2027 120.79 18.3893 121.056 18.624C121.323 18.848 121.526 19.1093 121.664 19.408C121.814 19.7067 121.91 20.0053 121.952 20.304L120.768 20.592C120.715 20.08 120.507 19.68 120.144 19.392C119.792 19.104 119.328 18.96 118.752 18.96C118.528 18.96 118.31 18.9867 118.096 19.04C117.894 19.0827 117.712 19.152 117.552 19.248C117.392 19.344 117.264 19.4667 117.168 19.616C117.072 19.7547 117.024 19.92 117.024 20.112ZM132.661 22.128C132.661 22.7893 132.549 23.376 132.325 23.888C132.112 24.3893 131.824 24.816 131.461 25.168C131.099 25.5093 130.672 25.7707 130.181 25.952C129.701 26.1333 129.2 26.224 128.677 26.224C128.144 26.224 127.637 26.1333 127.157 25.952C126.677 25.7707 126.256 25.5093 125.893 25.168C125.531 24.816 125.237 24.3893 125.013 23.888C124.8 23.376 124.693 22.7893 124.693 22.128V21.936C124.693 21.2853 124.8 20.7093 125.013 20.208C125.237 19.696 125.531 19.264 125.893 18.912C126.267 18.56 126.693 18.2933 127.173 18.112C127.653 17.9307 128.155 17.84 128.677 17.84C129.2 17.84 129.701 17.9307 130.181 18.112C130.661 18.2933 131.083 18.56 131.445 18.912C131.819 19.264 132.112 19.696 132.325 20.208C132.549 20.7093 132.661 21.2853 132.661 21.936V22.128ZM128.677 25.04C129.061 25.04 129.413 24.976 129.733 24.848C130.064 24.7093 130.352 24.512 130.597 24.256C130.843 24 131.035 23.696 131.173 23.344C131.312 22.9813 131.381 22.576 131.381 22.128V21.936C131.381 21.5093 131.312 21.12 131.173 20.768C131.035 20.4053 130.843 20.096 130.597 19.84C130.352 19.584 130.064 19.3867 129.733 19.248C129.403 19.0987 129.051 19.024 128.677 19.024C128.304 19.024 127.952 19.0987 127.621 19.248C127.291 19.3867 127.003 19.584 126.757 19.84C126.512 20.096 126.32 20.4053 126.181 20.768C126.043 21.12 125.973 21.5093 125.973 21.936V22.128C125.973 22.576 126.043 22.9813 126.181 23.344C126.32 23.696 126.512 24 126.757 24.256C127.003 24.512 127.285 24.7093 127.605 24.848C127.936 24.976 128.293 25.04 128.677 25.04ZM136.218 26H134.97V18.064H136.218V19.408H136.41C136.901 18.3627 137.754 17.84 138.97 17.84C139.887 17.84 140.618 18.128 141.162 18.704C141.706 19.2693 141.978 20.1227 141.978 21.264V26H140.73V21.52C140.73 20.688 140.543 20.064 140.17 19.648C139.797 19.232 139.29 19.024 138.65 19.024C137.893 19.024 137.295 19.2853 136.858 19.808C136.431 20.32 136.218 21.008 136.218 21.872V26ZM155.876 21.392V26H154.532V14.8H158.532C159.108 14.8 159.609 14.8853 160.036 15.056C160.463 15.216 160.815 15.4347 161.092 15.712C161.38 15.9893 161.593 16.3147 161.732 16.688C161.881 17.0507 161.956 17.4347 161.956 17.84V18.32C161.956 18.7253 161.881 19.1147 161.732 19.488C161.593 19.8613 161.38 20.192 161.092 20.48C160.804 20.7573 160.447 20.9813 160.02 21.152C159.593 21.312 159.097 21.392 158.532 21.392H155.876ZM155.876 20.144H158.372C159.865 20.144 160.612 19.504 160.612 18.224V17.936C160.612 17.3707 160.425 16.9173 160.052 16.576C159.689 16.224 159.129 16.048 158.372 16.048H155.876V20.144ZM163.913 18.064H166.793V19.12H166.985C167.187 18.6827 167.475 18.3627 167.849 18.16C168.222 17.9467 168.649 17.84 169.129 17.84C169.929 17.84 170.574 18.1013 171.065 18.624C171.555 19.1467 171.817 19.9093 171.849 20.912L170.537 21.104C170.537 20.368 170.361 19.84 170.009 19.52C169.657 19.1893 169.225 19.024 168.713 19.024C168.382 19.024 168.094 19.088 167.849 19.216C167.614 19.344 167.417 19.52 167.257 19.744C167.097 19.968 166.979 20.2293 166.905 20.528C166.83 20.8267 166.793 21.1467 166.793 21.488V24.848H168.809V26H163.721V24.848H165.545V19.216H163.913V18.064ZM181.646 22.128C181.646 22.7893 181.534 23.376 181.31 23.888C181.096 24.3893 180.808 24.816 180.446 25.168C180.083 25.5093 179.656 25.7707 179.166 25.952C178.686 26.1333 178.184 26.224 177.662 26.224C177.128 26.224 176.622 26.1333 176.142 25.952C175.662 25.7707 175.24 25.5093 174.878 25.168C174.515 24.816 174.222 24.3893 173.998 23.888C173.784 23.376 173.678 22.7893 173.678 22.128V21.936C173.678 21.2853 173.784 20.7093 173.998 20.208C174.222 19.696 174.515 19.264 174.878 18.912C175.251 18.56 175.678 18.2933 176.158 18.112C176.638 17.9307 177.139 17.84 177.662 17.84C178.184 17.84 178.686 17.9307 179.166 18.112C179.646 18.2933 180.067 18.56 180.43 18.912C180.803 19.264 181.096 19.696 181.31 20.208C181.534 20.7093 181.646 21.2853 181.646 21.936V22.128ZM177.662 25.04C178.046 25.04 178.398 24.976 178.718 24.848C179.048 24.7093 179.336 24.512 179.582 24.256C179.827 24 180.019 23.696 180.158 23.344C180.296 22.9813 180.366 22.576 180.366 22.128V21.936C180.366 21.5093 180.296 21.12 180.158 20.768C180.019 20.4053 179.827 20.096 179.582 19.84C179.336 19.584 179.048 19.3867 178.718 19.248C178.387 19.0987 178.035 19.024 177.662 19.024C177.288 19.024 176.936 19.0987 176.606 19.248C176.275 19.3867 175.987 19.584 175.742 19.84C175.496 20.096 175.304 20.4053 175.166 20.768C175.027 21.12 174.958 21.5093 174.958 21.936V22.128C174.958 22.576 175.027 22.9813 175.166 23.344C175.304 23.696 175.496 24 175.742 24.256C175.987 24.512 176.27 24.7093 176.59 24.848C176.92 24.976 177.278 25.04 177.662 25.04ZM187.475 15.696C187.475 15.3867 187.581 15.1253 187.795 14.912C188.019 14.688 188.285 14.576 188.595 14.576C188.904 14.576 189.165 14.688 189.379 14.912C189.603 15.1253 189.715 15.3867 189.715 15.696C189.715 16.0053 189.603 16.272 189.379 16.496C189.165 16.7093 188.904 16.816 188.595 16.816C188.285 16.816 188.019 16.7093 187.795 16.496C187.581 16.272 187.475 16.0053 187.475 15.696ZM184.819 18.064H189.235V27.952C189.235 28.3147 189.117 28.6133 188.883 28.848C188.659 29.0827 188.365 29.2 188.003 29.2H184.435V28.048H187.555C187.843 28.048 187.987 27.888 187.987 27.568V19.216H184.819V18.064ZM194.663 22.416C194.695 23.2053 194.941 23.84 195.399 24.32C195.858 24.8 196.498 25.04 197.319 25.04C197.693 25.04 198.018 24.9973 198.295 24.912C198.573 24.8267 198.807 24.7093 198.999 24.56C199.202 24.4107 199.362 24.24 199.479 24.048C199.607 23.8453 199.709 23.632 199.783 23.408L200.967 23.728C200.743 24.464 200.327 25.0667 199.719 25.536C199.122 25.9947 198.311 26.224 197.287 26.224C196.722 26.224 196.199 26.128 195.719 25.936C195.25 25.7333 194.845 25.4507 194.503 25.088C194.162 24.7253 193.895 24.2933 193.703 23.792C193.511 23.2907 193.415 22.736 193.415 22.128V21.744C193.415 21.1893 193.511 20.672 193.703 20.192C193.906 19.712 194.183 19.3013 194.535 18.96C194.887 18.608 195.298 18.336 195.767 18.144C196.247 17.9413 196.765 17.84 197.319 17.84C197.97 17.84 198.53 17.9627 198.999 18.208C199.479 18.4427 199.869 18.736 200.167 19.088C200.477 19.44 200.701 19.824 200.839 20.24C200.989 20.656 201.063 21.04 201.063 21.392V22.416H194.663ZM197.319 19.024C196.967 19.024 196.637 19.0827 196.327 19.2C196.029 19.3067 195.762 19.4613 195.527 19.664C195.303 19.8667 195.117 20.1067 194.967 20.384C194.829 20.6507 194.738 20.944 194.695 21.264H199.815C199.794 20.9227 199.709 20.6133 199.559 20.336C199.421 20.0587 199.234 19.824 198.999 19.632C198.775 19.44 198.514 19.2907 198.215 19.184C197.927 19.0773 197.629 19.024 197.319 19.024ZM210.972 23.184C210.887 23.6213 210.738 24.0267 210.524 24.4C210.322 24.7733 210.06 25.0987 209.74 25.376C209.42 25.6427 209.047 25.8507 208.62 26C208.194 26.1493 207.719 26.224 207.196 26.224C206.642 26.224 206.114 26.1333 205.612 25.952C205.122 25.7707 204.69 25.5093 204.316 25.168C203.943 24.816 203.644 24.3893 203.42 23.888C203.207 23.3867 203.1 22.8107 203.1 22.16V21.968C203.1 21.328 203.207 20.752 203.42 20.24C203.644 19.728 203.943 19.296 204.316 18.944C204.69 18.592 205.122 18.32 205.612 18.128C206.114 17.936 206.642 17.84 207.196 17.84C207.698 17.84 208.162 17.9147 208.588 18.064C209.015 18.2133 209.388 18.4267 209.708 18.704C210.039 18.9707 210.306 19.2907 210.508 19.664C210.722 20.0373 210.866 20.4427 210.94 20.88L209.692 21.168C209.66 20.8907 209.58 20.624 209.452 20.368C209.335 20.1013 209.17 19.872 208.956 19.68C208.754 19.4773 208.503 19.3173 208.204 19.2C207.906 19.0827 207.559 19.024 207.164 19.024C206.78 19.024 206.418 19.0987 206.076 19.248C205.746 19.3867 205.452 19.5893 205.196 19.856C204.94 20.112 204.738 20.4213 204.588 20.784C204.45 21.1467 204.38 21.5413 204.38 21.968V22.16C204.38 22.608 204.45 23.0133 204.588 23.376C204.738 23.728 204.94 24.0267 205.196 24.272C205.452 24.5173 205.751 24.7093 206.092 24.848C206.434 24.976 206.802 25.04 207.196 25.04C207.591 25.04 207.932 24.9813 208.22 24.864C208.519 24.736 208.77 24.576 208.972 24.384C209.186 24.1813 209.351 23.952 209.468 23.696C209.596 23.44 209.682 23.1733 209.724 22.896L210.972 23.184ZM213.073 18.064H215.569V14.8H216.817V18.064H219.889V19.216H216.817V24.368C216.817 24.688 216.961 24.848 217.249 24.848H219.505V26H216.801C216.438 26 216.14 25.8827 215.905 25.648C215.681 25.4133 215.569 25.1147 215.569 24.752V19.216H213.073V18.064ZM224.79 20.112C224.79 20.496 224.95 20.7893 225.27 20.992C225.601 21.1947 226.198 21.328 227.062 21.392C227.99 21.4667 228.694 21.6907 229.174 22.064C229.665 22.4267 229.91 22.96 229.91 23.664V23.76C229.91 24.144 229.83 24.4907 229.67 24.8C229.521 25.0987 229.307 25.3547 229.03 25.568C228.763 25.7813 228.433 25.9413 228.038 26.048C227.654 26.1653 227.233 26.224 226.774 26.224C226.155 26.224 225.622 26.144 225.174 25.984C224.737 25.8133 224.369 25.5947 224.07 25.328C223.782 25.0507 223.563 24.7413 223.414 24.4C223.265 24.048 223.179 23.696 223.158 23.344L224.342 23.056C224.395 23.664 224.63 24.1547 225.046 24.528C225.462 24.8907 226.017 25.072 226.71 25.072C227.297 25.072 227.766 24.96 228.118 24.736C228.481 24.5013 228.662 24.176 228.662 23.76C228.662 23.312 228.486 22.992 228.134 22.8C227.782 22.608 227.211 22.4853 226.422 22.432C225.505 22.368 224.801 22.1547 224.31 21.792C223.819 21.4293 223.574 20.9013 223.574 20.208V20.112C223.574 19.7387 223.654 19.4133 223.814 19.136C223.974 18.848 224.187 18.608 224.454 18.416C224.731 18.224 225.041 18.08 225.382 17.984C225.723 17.888 226.081 17.84 226.454 17.84C226.977 17.84 227.435 17.9147 227.83 18.064C228.225 18.2027 228.555 18.3893 228.822 18.624C229.089 18.848 229.291 19.1093 229.43 19.408C229.579 19.7067 229.675 20.0053 229.718 20.304L228.534 20.592C228.481 20.08 228.273 19.68 227.91 19.392C227.558 19.104 227.094 18.96 226.518 18.96C226.294 18.96 226.075 18.9867 225.862 19.04C225.659 19.0827 225.478 19.152 225.318 19.248C225.158 19.344 225.03 19.4667 224.934 19.616C224.838 19.7547 224.79 19.92 224.79 20.112Z" fill="black"/>
</svg>
